<svg width="83" height="63" viewBox="0 0 83 63" fill="none" xmlns="http://www.w3.org/2000/svg">
<g clip-path="url(#clip0_35_352)">
<path d="M81.4358 29.0209L81.4784 28.8995C81.7536 28.1357 82.0288 27.3719 82.299 26.6081V25.7715C82.1614 25.7445 82.0213 25.7121 81.8837 25.6824C81.3608 25.5691 80.8654 25.4611 80.3775 25.4584C71.3755 25.4233 64.0348 25.4179 57.2746 25.4476C55.4281 25.4557 54.2397 26.3706 53.6392 28.2464C53.2289 29.5337 52.7535 30.8184 52.2982 32.0599C51.7978 33.4147 51.2899 34.7966 50.8596 36.1757C50.3567 37.7896 49.6536 38.7639 47.7071 38.6344C45.6855 38.4967 43.6189 38.5291 41.6224 38.5561H41.5648C40.7242 38.5696 39.8835 38.5804 39.0454 38.5804H30.879L31.0166 38.0406C31.6922 35.393 32.4077 34.0517 33.4886 33.4012C34.6245 32.7211 36.1331 32.7913 38.8627 33.6549L39.4282 33.8331L37.4567 36.5211H38.7652C40.2038 36.5265 41.5623 36.5292 42.9259 36.5157C43.5339 36.5238 44.1669 36.5643 44.7773 36.6183C46.1809 36.7397 47.6321 36.8639 48.4777 36.2405C49.3259 35.617 49.7362 34.084 50.1315 32.6051C50.2941 31.9924 50.4643 31.3636 50.6619 30.7941C51.2499 29.1208 51.2499 27.7552 50.6644 26.8429C50.0715 25.9172 48.858 25.4233 47.1542 25.4179C44.0293 25.4044 40.9319 25.4044 37.4992 25.4071H37.1714C33.0632 25.4071 28.8149 25.4125 24.6367 25.3748C24.4065 25.3748 24.2139 25.3909 24.0512 25.4152C23.9261 25.8309 23.7785 26.3086 23.6109 26.7809C23.5008 27.0885 23.3507 27.3665 23.2056 27.6364C23.0955 27.8388 22.9929 28.0305 22.9103 28.2221C22.5401 29.0992 22.3424 30.0492 22.1673 30.9453L22.1147 31.2178C21.9271 32.2029 21.7344 33.2096 21.4492 34.1812C21.1865 35.0772 21.129 36.0326 21.2566 37.2822C21.3116 37.8301 21.3967 38.3888 21.4767 38.9285L21.5418 39.3658C21.5468 39.3981 21.5568 39.4224 21.5593 39.4278C21.8395 39.7328 21.9421 40.1322 21.842 40.5668C21.7394 41.0175 21.767 41.4331 21.9296 41.873C22.1297 42.4182 22.1723 42.9904 22.0522 43.5274C22.0071 43.7245 22.0872 43.9269 22.1848 44.1833L22.2498 44.3587C22.3324 44.5935 22.4225 44.8229 22.51 45.0523C22.6952 45.5354 22.8803 46.0185 23.0254 46.5178C23.133 46.8848 23.148 47.26 23.1605 47.6243L23.1706 47.8672C23.1856 48.156 23.1931 48.4475 23.2006 48.7363C23.2106 49.1006 23.2181 49.4785 23.2456 49.8482L23.2581 50.0128C23.3357 51.0465 23.4132 52.1153 23.2681 53.1948C23.2406 53.4053 23.2681 53.6159 23.3632 53.9073C23.5083 54.3446 23.4983 54.8331 23.4783 55.1596C23.4583 55.4727 23.4207 55.7858 23.3832 56.0907C23.3657 56.2392 23.3482 56.3714 23.3357 56.4983C24.0838 56.4524 24.4215 56.115 24.7318 55.1515C25.3397 53.2677 26.0278 51.3812 26.6933 49.5567C26.9335 48.9036 27.1687 48.2586 27.4013 47.6108C27.7541 46.6312 28.7023 45.7621 29.8783 45.3411C31.0141 44.9336 32.1375 45.0172 32.9582 45.5678C34.8621 46.8471 33.989 49.2734 33.7037 50.0695C33.1483 51.616 32.6154 53.1597 32.0525 54.7926L31.477 56.4605H33.2334C35.7003 56.4686 38.0221 56.474 40.3564 56.42C40.5766 56.4146 41.0294 56.0529 41.102 55.8208C41.3797 54.9464 41.725 54.0828 42.0627 53.2488C43.2436 50.3097 44.362 47.5326 42.6507 44.3506L42.433 43.9458L48.15 41.1092L47.9248 41.9972C47.8873 42.1483 47.8522 42.2913 47.8197 42.4263C47.7522 42.7178 47.6871 42.9904 47.5945 43.2656C47.2443 44.3074 46.8865 45.3492 46.5287 46.3883C45.8532 48.3584 45.1526 50.3961 44.5071 52.423C44.0768 53.7751 44.0818 54.8007 44.5221 55.4673C44.955 56.1204 45.8207 56.4524 47.0991 56.4578C53.8919 56.4848 60.8023 56.4767 67.4825 56.4659H69.0112C71.0427 56.4605 72.4388 55.4052 73.1569 53.3244C74.0976 50.5931 74.9908 47.7647 75.8115 44.9147C76.1867 43.6084 75.8215 41.8514 74.8782 40.4399C74.1151 39.301 73.1519 38.6344 72.2312 38.6101C68.8035 38.521 65.3333 38.5615 61.7831 38.6101C61.4103 38.6155 60.9499 38.8881 60.9099 38.9879C60.1918 40.896 59.5263 42.8635 58.8833 44.7689L58.4154 46.1481C59.5713 46.2965 60.7322 46.256 61.8581 46.2155C63.642 46.1508 65.3258 46.0914 66.9871 46.7202L67.2773 46.8309L67.1497 48.4205H55.2755L55.4832 47.8402C55.8534 46.8012 56.2137 45.7702 56.574 44.7446L56.6215 44.6043C57.6999 41.5276 58.7207 38.6236 59.8591 35.698C60.2143 34.7831 61.2476 33.7008 62.1608 33.609C63.8296 33.439 65.531 33.466 67.3349 33.4957C68.088 33.5065 68.841 33.52 69.6317 33.52H70.3522L68.5708 36.5697C69.2489 36.5697 69.9194 36.5643 70.5824 36.5616H70.74C73.0893 36.5481 75.3061 36.5346 77.5653 36.6021C78.5361 36.6345 78.9189 36.3268 79.2666 35.2473C79.9397 33.1529 80.6952 31.0532 81.4283 29.0236" fill="black"/>
<path d="M26.6256 58.7222L26.4605 59.7477H24.7316L24.6416 60.2956H25.89L25.7224 61.3212H24.4764L24.2162 62.8946H23.2305L23.911 58.7222H26.6256Z" fill="black"/>
<path d="M27.8991 58.7222L27.2186 62.8946H26.2778L26.9584 58.7222H27.8991Z" fill="black"/>
<path d="M30.011 60.2849C30.056 59.8746 30.0485 59.6425 29.6407 59.6425C29.2329 59.6425 29.1578 59.9232 29.0803 60.382L28.9427 61.2403C28.8651 61.6991 28.8476 61.9797 29.2579 61.9797C29.6682 61.9797 29.7408 61.6991 29.7908 61.4076H29.303L29.4406 60.5736H30.8817L30.7216 61.556C30.654 61.9501 30.4063 63.0053 29.0928 63.0053C27.7793 63.0053 27.8743 61.9501 27.9394 61.556L28.1821 60.0662C28.2446 59.6722 28.4973 58.6169 29.8108 58.6169C31.1244 58.6169 31.0293 59.6722 30.9692 60.0662L30.011 60.2876V60.2849Z" fill="black"/>
<path d="M32.6201 58.7222L32.3224 60.5709H33.1855L33.4858 58.7222H34.439L33.756 62.8946H32.8027L33.0129 61.5938H32.1497L31.9396 62.8946H30.9863L31.6669 58.7222H32.6201Z" fill="black"/>
<path d="M35.7129 59.7477H34.6045L34.7696 58.7222H37.9396L37.7745 59.7477H36.6661L36.1507 62.8946H35.1975L35.7129 59.7477Z" fill="black"/>
<path d="M40.4214 61.2375C40.3438 61.6964 40.3263 61.977 40.7366 61.977C41.1469 61.977 41.2295 61.7449 41.3196 61.3347L42.2052 61.556C42.1377 61.9501 41.8825 63.0026 40.5715 63.0026C39.2605 63.0026 39.353 61.9474 39.4181 61.556L39.6633 60.0662C39.7233 59.6722 39.9785 58.6196 41.292 58.6196C42.6056 58.6196 42.5105 59.6749 42.4504 60.0662L41.4922 60.2875C41.5372 59.8773 41.5322 59.6452 41.1219 59.6452C40.7116 59.6452 40.639 59.9259 40.5615 60.3847L40.4239 61.2429L40.4214 61.2375Z" fill="black"/>
<path d="M43.9892 58.7222L43.4738 61.8691H45.0426L44.8749 62.8946H42.3555L43.036 58.7222H43.9892Z" fill="black"/>
<path d="M46.8212 58.7222L46.4109 61.2348C46.3334 61.6936 46.3159 61.9743 46.7262 61.9743C47.1365 61.9743 47.2091 61.6936 47.2866 61.2348L47.6969 58.7222H48.6502L48.1898 61.5506C48.1223 61.9446 47.8746 62.9999 46.561 62.9999C45.2475 62.9999 45.3426 61.9446 45.4077 61.5506L45.868 58.7222H46.8212Z" fill="black"/>
<path d="M50.4993 58.7222C51.5401 58.7222 51.8679 59.1756 51.7077 60.1526C51.6752 60.355 51.5526 60.749 51.2874 61.0162C51.4926 61.1296 51.6102 61.4264 51.5476 61.7962C51.4325 62.5357 51.0647 62.8919 50.0239 62.8919H48.4902L49.1708 58.7222H50.5018H50.4993ZM50.089 62.0472C50.3542 62.0472 50.4943 62.0175 50.5368 61.7368C50.5819 61.4561 50.4693 61.4157 50.2041 61.4157H49.6762L49.5711 62.0472H50.0865H50.089ZM50.2891 60.5574C50.5543 60.5574 50.6944 60.5223 50.7545 60.1526C50.8145 59.7828 50.6894 59.7477 50.4217 59.7477H49.9564L49.8238 60.5574H50.2891Z" fill="black"/>
<path d="M0.255371 60.8436L21.0841 60.4712V61.2188L0.255371 60.8436Z" fill="black"/>
<path d="M70.527 60.8436L53.8516 61.2188V60.4712L70.527 60.8436Z" fill="black"/>
<path d="M21.5992 53.4404C21.7468 52.3555 21.6543 51.2732 21.5742 50.1883C21.5242 49.5271 21.5342 48.8604 21.4991 48.1965C21.4766 47.7809 21.4866 47.3437 21.3716 46.9523C21.1589 46.2263 20.8612 45.53 20.606 44.8202C20.4809 44.4721 20.3032 44.1266 20.3908 43.7326C20.4984 43.2522 20.4458 42.7745 20.2857 42.3372C20.0931 41.8137 20.058 41.309 20.1831 40.7719C20.2457 40.4939 20.1906 40.2375 19.9905 40.0216C9.12454 43.1874 6.32236 38.2673 6.32236 38.2673C6.21227 38.5453 6.01712 38.8233 6.16724 39.1337C6.33487 39.4791 6.29484 39.7058 5.94957 39.8489C5.94457 39.8489 5.93956 39.8624 5.93956 39.8705C5.86951 40.1458 5.75942 40.4183 5.7369 40.6963C5.69687 41.1956 5.52424 41.6005 5.17647 41.9324C4.73362 42.3561 4.29328 42.7853 3.86795 43.2306C3.73785 43.3655 3.66029 43.5571 3.55771 43.7218C3.58523 43.7461 3.61025 43.7704 3.63777 43.7946C3.78539 43.6624 3.9305 43.5302 4.08062 43.4033C4.14317 43.352 4.21322 43.2846 4.28328 43.2792C4.32581 43.2765 4.37585 43.3763 4.38085 43.3817C4.50345 43.2684 4.61603 43.1658 4.76365 43.0282C4.75614 43.5005 4.73613 43.5086 4.28328 43.6462C3.78539 43.7946 3.35005 44.051 3.11737 44.5854C3.09485 44.6367 3.10986 44.7069 3.10736 44.7662C3.1574 44.75 3.21495 44.7473 3.25498 44.715C3.74286 44.329 4.22823 43.9404 4.71611 43.5517C4.89875 43.406 5.12643 43.5032 5.18147 43.7677C5.11392 43.7892 5.03886 43.8459 4.97882 43.827C4.64355 43.7353 4.42338 43.9296 4.20822 44.1536C4.1857 44.1752 4.15067 44.186 4.12315 44.2022C3.99555 44.2831 3.85544 44.3479 3.74286 44.4505C3.58273 44.5962 3.43261 44.7581 3.29751 44.9309C3.25247 44.9876 3.22745 45.1225 3.25998 45.1738C3.44512 45.4653 3.71283 45.5057 4.00556 45.3195C4.16568 45.217 4.33582 45.1333 4.49094 45.0226C4.67608 44.8877 4.84621 44.7312 4.93128 44.4721C4.8312 44.4451 4.76115 44.4289 4.69109 44.41C4.67608 44.383 4.65857 44.3587 4.64105 44.3344C5.16896 44.2049 5.50172 43.8648 5.63432 43.236C5.80946 43.4303 6.01212 43.5517 6.01962 43.684C6.02713 43.8486 5.87451 44.0241 5.78944 44.1914C5.87952 44.1806 5.93956 44.1266 5.9871 44.0618C6.06466 43.9539 6.1222 43.8216 6.21227 43.7326C6.32736 43.6192 6.40993 43.6786 6.44245 43.7946C6.2473 44.0268 6.07717 44.2346 5.90203 44.4451C6.19976 44.6367 6.30735 44.58 6.35739 44.2508C6.40242 43.9566 6.4975 43.8891 6.67013 44.0187C6.60258 44.1482 6.52251 44.2696 6.47498 44.4073C6.41743 44.5665 6.3699 44.7393 6.62509 44.7689C6.66513 44.7743 6.72767 44.885 6.72267 44.939C6.69515 45.2547 6.43995 45.5219 6.05715 45.5921C6.26231 45.0496 5.87952 44.7581 5.63432 44.3884C5.31908 44.3236 5.50422 44.858 5.18397 44.8553C5.19899 44.7204 5.2115 44.5989 5.22651 44.464C4.98132 44.6178 4.8287 44.9929 4.88624 45.2736C4.97131 45.1927 5.05888 45.1063 5.14645 45.0226C5.19398 45.1225 5.20899 45.2143 5.17397 45.2709C4.94879 45.6623 4.72112 46.0509 4.48093 46.4315C4.38335 46.5853 4.38085 46.7013 4.48093 46.8552C4.53097 46.9307 4.54598 47.0819 4.51095 47.1629C4.39586 47.4219 4.27827 47.6918 4.10314 47.905C3.81791 48.2505 3.47765 48.542 3.18242 48.8739C3.04982 49.0224 2.94974 49.0386 2.81213 48.9171C2.65951 48.7822 2.53942 48.8173 2.41933 48.9792C2.34177 49.0818 2.23418 49.16 2.09157 49.295C2.11659 48.7498 2.13911 48.2991 2.16163 47.8484L2.09407 47.8403C1.91644 48.2721 1.7413 48.7066 1.56366 49.1384C1.58618 49.1492 1.6087 49.1627 1.63121 49.1735L1.76882 49.0737C1.69877 49.2761 1.63872 49.5406 1.49611 49.6107C1.23341 49.7403 1.19087 49.9589 1.16585 50.1937C1.13333 50.5311 1.13583 50.8765 1.12082 51.2166C1.10831 51.4811 1.11331 51.7483 1.07328 52.0073C1.04326 52.2017 0.938176 52.3825 0.900647 52.5741C0.825589 52.96 0.835597 52.9627 1.20338 53.0356C1.08329 53.1598 0.973204 53.2677 0.850608 53.3919C0.833095 53.3055 0.823087 53.2515 0.805573 53.1733C0.760538 53.2488 0.718005 53.2947 0.69799 53.3487C0.5829 53.6645 0.485325 53.9883 0.352721 54.2933C0.220118 54.5956 0.0249668 54.8709 0.210111 55.2298C0.24764 55.3027 0.210111 55.4187 0.242636 55.497C0.307687 55.6454 0.277663 55.7426 0.15757 55.8317C0.107531 55.8694 0.0800096 55.9423 0.0424805 55.9963C0.0424805 56.0233 0.0474844 56.0503 0.0499863 56.0773C0.307687 55.8856 0.322698 56.0692 0.360227 56.2284C0.400258 56.3984 0.455301 56.5658 0.500336 56.7358C0.527858 56.8437 0.540367 56.9571 0.577896 57.0597C0.590406 57.0893 0.60792 57.1163 0.625433 57.146H1.84888C1.80135 57.0246 1.75631 56.9031 1.71378 56.7817C1.65874 56.6251 1.71628 56.5442 1.88141 56.5739C2.15912 56.6278 2.33926 56.8734 2.34677 57.1433H10.3004V57.1514C13.2653 57.1622 16.2301 57.1379 19.1949 57.1757C19.1949 57.1649 19.1949 57.1541 19.1924 57.1433C19.1773 56.9814 19.1598 56.8168 19.1423 56.6386C19.2824 56.7331 19.3625 56.9355 19.3825 57.1433H21.6318C21.6718 56.5685 21.7744 55.999 21.8094 55.4241C21.8319 55.0652 21.8269 54.6738 21.7168 54.3419C21.6142 54.0288 21.5592 53.74 21.6017 53.4243M5.98209 42.4965C5.89703 42.5505 5.80195 42.5882 5.69437 42.6395C5.68937 42.5828 5.68436 42.5154 5.67936 42.4425C5.63182 42.4668 5.59179 42.4884 5.55176 42.51C5.53925 42.4992 5.52674 42.4884 5.51423 42.4776C5.57928 42.3777 5.64683 42.2779 5.68937 42.2131C5.61431 42.1186 5.51173 42.0431 5.48671 41.9459C5.4692 41.8757 5.54926 41.7732 5.5968 41.6625C5.76693 41.9243 5.91454 42.1429 6.05215 42.3696C6.06466 42.3912 6.01712 42.4776 5.98209 42.5019M6.15973 41.2604C6.15473 41.309 6.07217 41.3468 6.02713 41.3899C5.99711 41.3306 5.92955 41.255 5.94457 41.2145C6.01462 41.0175 6.10469 40.8286 6.19226 40.6289C6.18225 40.8637 6.18225 41.0634 6.15973 41.2604ZM0.655457 57.0111C0.645449 56.7466 0.635441 56.4794 0.622931 56.1987C0.950686 56.2986 0.963196 56.5361 0.655457 57.0111ZM1.27844 55.2028C1.14584 54.7737 1.24091 54.5578 1.6062 54.4822C1.7413 55.0058 1.71128 55.0706 1.27844 55.2028ZM1.46358 50.2504C1.41355 50.1586 1.32598 50.0668 1.32348 49.9751C1.32348 49.8428 1.38102 49.7322 1.55616 49.7565C1.6162 49.7646 1.68876 49.6728 1.75381 49.6269C1.82386 49.5784 1.89142 49.5298 1.99149 49.4596C2.08156 49.9427 1.6187 49.9454 1.46358 50.2531M2.16913 51.0277C2.04404 50.774 2.06155 50.5472 2.21917 50.3583C2.26671 50.3016 2.37179 50.3017 2.48188 50.2666C2.35928 50.5634 2.26421 50.7955 2.16913 51.0303M5.4692 45.0334C5.4692 45.0334 5.49171 45.0496 5.49171 45.055C5.49672 45.2358 5.41415 45.3924 5.24903 45.5327C5.17397 45.5975 5.10641 45.6758 5.01634 45.7351C5.16646 45.5003 5.31908 45.2682 5.4692 45.0334ZM4.59602 51.6646C4.4484 51.2409 4.29578 50.8522 4.1832 50.4501C4.13316 50.2693 4.10814 50.0399 4.17069 49.8752C4.28828 49.5676 4.48093 49.2923 4.65606 48.9765C4.80868 49.1411 4.81869 49.3031 4.73362 49.465C4.54598 49.8186 4.53347 50.1694 4.67358 50.5445C4.73613 50.7119 4.81619 50.7551 5.02135 50.6714C4.79617 51.0034 4.89625 51.446 4.59602 51.6646ZM5.49922 48.1102C5.45919 48.2397 5.38413 48.3585 5.31658 48.4772C5.2165 48.6526 5.0864 48.7687 4.80868 48.631C4.94629 48.3773 5.06388 48.1264 5.2115 47.8969C5.24652 47.843 5.38913 47.8403 5.46669 47.8673C5.49922 47.8781 5.52174 48.0373 5.49672 48.1102M6.05715 49.2302C5.97459 49.3328 5.78694 49.3462 5.64183 49.3651C5.61181 49.3705 5.56427 49.2275 5.54926 49.1978C5.61181 48.9279 5.65184 48.7228 5.70938 48.5231C5.74441 48.3989 5.80946 48.2883 5.95207 48.4205C5.95708 48.4259 5.96208 48.434 5.96959 48.4367C6.08467 48.5096 6.30735 48.6068 6.29734 48.6472C6.25481 48.8524 6.18225 49.0737 6.05715 49.2275M6.27232 46.7094C6.23729 46.6878 6.20477 46.6663 6.17224 46.6447C6.23479 46.5286 6.28983 46.4045 6.36489 46.2992C6.44245 46.1913 6.55004 46.1049 6.6326 45.9996C6.71266 45.8944 6.77771 45.7756 6.86778 45.6731C6.81524 46.1211 6.505 46.3883 6.27232 46.7094ZM7.23307 44.4667C7.22556 44.5449 7.20304 44.634 7.15801 44.6853C7.13049 44.7177 7.04292 44.7042 6.98537 44.6934C6.93283 44.6853 6.8853 44.6529 6.78522 44.6124C6.85277 44.4667 6.91282 44.3344 6.97537 44.2049C7.00039 44.2157 7.02791 44.2265 7.05543 44.2373C7.04542 44.1185 7.03541 43.9998 7.0229 43.8567C6.94284 43.8756 6.88029 43.8918 6.78021 43.9188C6.82525 43.7677 6.86278 43.6381 6.8928 43.5383C7.00039 43.6165 7.07294 43.6678 7.1455 43.7218C7.26059 43.8054 7.33064 43.8891 7.26059 44.0645C7.21555 44.1833 7.25058 44.3344 7.23557 44.4694M7.31063 44.9741C7.29061 44.9444 7.2706 44.9147 7.25058 44.885L7.41071 44.6529C7.44823 44.7258 7.48326 44.8013 7.52079 44.8742C7.45074 44.9066 7.38068 44.939 7.31063 44.9741ZM7.42071 41.8811C7.37318 41.8541 7.34315 41.8245 7.32063 41.7921C7.29562 41.757 7.28561 41.7219 7.28311 41.6841C7.2781 41.5735 7.35566 41.4547 7.37318 41.3441C7.37318 41.3441 7.37067 41.3414 7.36817 41.3387C7.36817 41.3387 7.36817 41.3387 7.37067 41.3333C7.35066 41.2577 7.32314 41.1821 7.31563 41.1066C7.29812 40.9635 7.29061 40.8178 7.2806 40.6747C7.30062 40.6747 7.32314 40.6747 7.34315 40.672C7.43322 40.7773 7.52329 40.8799 7.64839 41.0256C7.56582 41.1174 7.46825 41.2253 7.37318 41.3306C7.37318 41.3306 7.37318 41.3333 7.37318 41.336C7.37318 41.336 7.37318 41.3387 7.37318 41.3414C7.59084 41.5762 7.59835 41.6517 7.42071 41.8784M7.72345 45.3222C7.67841 45.3087 7.63588 45.2952 7.59084 45.2817C7.61837 45.1792 7.64589 45.0739 7.68091 44.9741C7.68342 44.9687 7.75847 44.993 7.80101 45.001C7.77349 45.109 7.74847 45.2143 7.72095 45.3222M7.83103 45.6488C7.87857 45.4653 7.9136 45.3222 7.95112 45.1765C8.1788 45.306 8.1713 45.3357 7.83103 45.6488ZM8.03869 42.4992C8.01367 42.4992 7.98615 42.4965 7.96113 42.4938C7.75347 42.205 7.9211 41.9864 8.12126 41.7435C8.09123 42.0161 8.06621 42.259 8.04119 42.4992M9.47231 47.9401C9.53986 47.7971 9.61742 47.7323 9.69498 47.8861C9.83008 48.1614 9.93517 48.4502 10.0553 48.7336C9.69248 48.5825 9.90514 48.0454 9.47481 47.9401M19.6327 52.8683C19.6127 52.8386 19.5927 52.8116 19.5727 52.7819L19.8729 52.5876C19.9004 52.8467 19.8729 52.8764 19.6327 52.8683ZM18.3042 41.5492C18.3517 41.533 18.4193 41.5897 18.4793 41.6112C18.4268 41.6517 18.3792 41.7138 18.3217 41.7246C18.1641 41.7597 18.0014 41.7732 17.8163 41.7975C17.7863 42.0026 17.7562 42.1942 17.7262 42.3831C17.7012 42.3831 17.6762 42.3885 17.6512 42.3912C17.5961 42.2374 17.5411 42.0863 17.461 41.8649C17.7437 41.757 18.0214 41.6463 18.3017 41.5492M17.6787 46.1292C17.6261 46.1454 17.5586 46.1184 17.5035 46.0941C17.4885 46.0887 17.4885 45.9888 17.4985 45.9861C17.6336 45.9349 17.7688 45.889 17.9089 45.8539C17.9314 45.8485 17.9689 45.916 18.0265 45.9807C17.8913 46.0401 17.7863 46.0968 17.6762 46.1292M17.9939 46.6528C17.9664 46.7877 17.9739 46.9361 17.9264 46.9604C17.7938 47.0279 17.6412 47.0657 17.496 47.0711C17.4535 47.0711 17.4085 46.9173 17.3509 46.8093C17.5861 46.7526 17.7612 46.7094 17.9964 46.6528M17.6311 44.8931C17.6311 44.8931 17.6261 44.8958 17.6261 44.8985H17.6186C17.5861 45.0982 17.3634 45.252 17.1783 45.2412C17.1157 45.2385 17.0557 45.217 17.0107 45.1738C16.9706 45.136 16.9706 45.0118 16.9931 44.9471C17.0107 44.8985 17.1007 44.858 17.1583 44.858C17.3109 44.858 17.466 44.8823 17.6186 44.8985V44.8931C17.6211 44.8931 17.6261 44.8931 17.6286 44.8931C17.7037 44.7258 17.9414 44.6043 18.1165 44.6718C18.1666 44.6907 18.1941 44.7851 18.2316 44.8445C18.2191 44.8688 18.2066 44.8931 18.1941 44.9201C18.0064 44.912 17.8163 44.9039 17.6286 44.8958M17.3459 48.7039C17.2208 48.4934 17.1107 48.3099 16.9982 48.1237C17.2534 48.1506 17.3885 48.3585 17.3459 48.7039ZM17.6687 44.1401C17.6637 44.1023 17.6587 44.0645 17.6537 44.024C17.8188 43.9728 17.9814 43.9107 18.1516 43.8864C18.1741 43.8837 18.2216 44.0807 18.2641 44.2103C18.024 44.1806 17.8488 44.159 17.6712 44.1374M17.2408 41.8488C17.2709 41.8703 17.3034 41.8919 17.3334 41.9135C17.2183 42.1024 17.1032 42.2887 16.9881 42.4776C16.9606 42.4587 16.9306 42.4398 16.9031 42.4209C17.0532 42.2563 16.9932 41.9459 17.2408 41.8488ZM17.0257 45.9484C17.0057 46.1346 16.9881 46.2965 16.9656 46.5151C16.8822 46.1985 16.9022 46.0095 17.0257 45.9484ZM16.8756 44.1941C16.8706 44.3182 16.8681 44.41 16.863 44.5368C16.7855 44.4883 16.743 44.464 16.6854 44.4262C16.6554 44.4829 16.6229 44.5449 16.5553 44.6745C16.5253 44.5045 16.4777 44.3965 16.4953 44.2966C16.5428 44.0133 16.7279 44.2238 16.8781 44.1914M16.4853 46.0968C16.5228 46.0725 16.6104 46.0563 16.6279 46.0806C16.6804 46.1508 16.7104 46.2425 16.758 46.3424C16.6554 46.2992 16.6129 46.2776 16.5678 46.2614C16.5228 46.2452 16.4777 46.2371 16.4327 46.2236C16.4502 46.1805 16.4552 46.1184 16.4878 46.0968M16.105 47.0792C16.1175 47.0927 16.0324 47.2033 15.9899 47.2681C15.9073 47.3923 15.8222 47.5137 15.7397 47.6352C15.7697 47.6702 15.7997 47.7053 15.8297 47.7431C15.9273 47.6945 16.0224 47.646 16.1275 47.5947C16.2 47.708 16.2951 47.8538 16.3877 47.9968C16.4102 47.9833 16.4327 47.9698 16.4527 47.9563C16.4102 47.87 16.3677 47.7836 16.3226 47.6864C16.4402 47.7215 16.5528 47.7404 16.6554 47.789C16.7179 47.816 16.793 47.8754 16.8105 47.9401C16.8656 48.1183 16.8981 48.3045 16.9281 48.4907C16.9356 48.5312 16.9056 48.6122 16.8806 48.6175C16.8155 48.6337 16.743 48.631 16.6779 48.6121C16.5353 48.5636 16.4027 48.4772 16.2576 48.4475C15.9448 48.3854 15.6921 48.1318 15.6646 47.789C15.6421 47.5164 15.6446 47.2411 15.6371 46.9415C15.7097 46.9307 15.8022 46.8957 15.8798 46.9173C15.9649 46.9415 16.0424 47.0117 16.1025 47.0819M15.8097 45.2035C15.7922 45.4545 15.7447 45.4653 15.3769 45.2251C15.5195 45.217 15.6621 45.2089 15.8097 45.2035ZM15.2268 46.8147C15.3018 46.92 15.3994 47.0144 15.4419 47.1332C15.4595 47.1871 15.3619 47.2843 15.3168 47.3626C15.2893 47.3572 15.2618 47.3491 15.2368 47.3437C15.1993 47.1898 15.1592 47.0333 15.1192 46.8795C15.1567 46.8579 15.1917 46.8336 15.2293 46.812M13.3428 51.4919C13.1477 51.3866 12.98 51.3434 12.8875 51.2301C12.8124 51.1356 12.8224 50.9602 12.8024 50.8198C12.8024 50.8144 12.9075 50.7713 12.9175 50.7847C13.0676 50.9845 13.2978 51.1302 13.3453 51.4919M12.252 52.3717C12.4096 52.1126 12.5672 51.8535 12.7273 51.5917C12.7574 51.6133 12.7874 51.6349 12.8174 51.6592C12.6498 51.9156 12.4821 52.172 12.3145 52.4284C12.2945 52.4095 12.2745 52.3906 12.2545 52.3717M12.7348 53.3811C12.93 53.0005 13.1251 52.6227 13.3203 52.2448C13.3553 52.2664 13.3878 52.288 13.4229 52.3096C13.2177 52.6821 13.0101 53.0545 12.8049 53.4243C12.7824 53.4108 12.7599 53.3946 12.7373 53.3811M14.3936 52.9493C14.3686 52.9654 14.3311 52.9573 14.2835 52.96C14.221 53.5349 13.7832 53.6186 13.4029 53.7751C13.3853 53.7589 13.3653 53.7427 13.3478 53.7265C13.4629 53.5349 13.553 53.3136 13.7006 53.1571C13.9458 52.9034 14.1184 52.6173 14.226 52.2448C14.266 52.3339 14.3036 52.423 14.3486 52.5093C14.3661 52.5471 14.3936 52.5795 14.4212 52.6119C14.4762 52.6767 14.5337 52.736 14.5913 52.7981C14.5262 52.8494 14.4637 52.9061 14.3961 52.9493M14.6013 47.179C14.5563 47.1008 14.5287 47.0522 14.4937 46.9928C14.4462 47.0198 14.3936 47.0495 14.3436 47.0765C14.3236 47.063 14.3036 47.0495 14.281 47.036C14.3211 46.9361 14.3611 46.839 14.4086 46.7283C14.7089 46.982 14.7139 46.9955 14.6038 47.179M18.2166 54.0882C18.1115 54.1125 17.9464 54.0585 17.8738 53.9748C17.7187 53.7913 17.6036 53.5673 17.476 53.3541C17.4035 53.2326 17.3409 53.1085 17.2734 52.9843C17.2408 52.9924 17.2108 53.0005 17.1783 53.0086C17.1833 53.095 17.1683 53.1895 17.1958 53.2704C17.3785 53.8318 17.5761 54.3878 17.7537 54.9491C17.8913 55.3809 17.8813 55.3836 17.5861 55.721C17.5411 55.4619 17.5111 55.192 17.4435 54.9329C17.401 54.771 17.3184 54.6091 17.2158 54.4795C16.9957 54.2042 16.7505 53.9505 16.5128 53.6914C16.3076 53.4701 16.2826 53.2758 16.4202 52.9924C16.4727 52.8845 16.5053 52.763 16.5478 52.6497C16.5303 52.6362 16.5103 52.6254 16.4903 52.6119C16.4427 52.6497 16.3777 52.6794 16.3476 52.7279C16.2376 52.9115 16.0874 52.9358 15.9023 52.9115C15.7072 52.8845 15.5946 52.817 15.5395 52.5795C15.4344 52.1234 15.2968 51.6727 15.1267 51.2409C15.0692 51.0951 14.8665 51.0196 14.6763 50.8657C14.7764 50.7254 14.9015 50.5499 15.0491 50.3421C15.1342 50.5419 15.1067 50.7767 15.3644 50.7524C15.3944 50.7497 15.4344 50.9413 15.4795 51.0384C15.532 51.1518 15.5771 51.2813 15.6571 51.3704C15.8973 51.6349 16.1525 51.8859 16.4052 52.1369C16.4953 52.226 16.5903 52.3069 16.7154 52.423C16.8055 52.1288 16.6979 51.9534 16.5478 51.8454C16.2276 51.6106 16.0549 51.2732 15.9298 50.9008C15.8548 50.6795 15.8147 50.4447 15.7322 50.2288C15.6696 50.0722 15.552 49.9427 15.4795 49.7862C15.3969 49.6053 15.2993 49.3597 15.5195 49.2545C15.7297 49.1519 15.8197 49.3813 15.8698 49.5972C16.205 49.4785 16.2551 49.8105 16.4027 49.9859C16.5928 50.2072 16.7805 50.4339 16.9556 50.6687C17.2108 51.0169 17.451 51.3785 17.7162 51.759C17.7537 51.7509 17.8288 51.7348 17.8363 51.7321C18.0089 52.0127 18.1741 52.2502 18.3092 52.5066C18.4393 52.7576 18.5694 53.0167 18.6444 53.2893C18.732 53.6024 18.5569 54.0072 18.2241 54.0855M18.3392 51.2625C18.2316 51.3515 18.1465 51.473 18.0265 51.6106C17.9789 51.5107 17.9239 51.3893 17.8938 51.3272C18.029 51.2328 18.1265 51.1626 18.2241 51.0951C18.144 50.9953 18.0765 50.8765 17.9814 50.8009C17.7663 50.6282 17.5361 50.4744 17.2408 50.2585C17.476 50.1991 17.6487 50.164 17.8163 50.11C17.9164 50.0776 18.0114 50.021 18.1065 49.9697C18.1566 49.9427 18.1966 49.8806 18.2441 49.8752C18.5043 49.8428 18.4743 49.6863 18.4243 49.4812C18.3092 49.0089 18.0415 48.6391 17.7738 48.2667C17.6036 48.0292 17.5085 47.7728 17.5461 47.4651C17.6987 47.4192 17.8438 47.3761 17.9989 47.3302C18.1666 47.6513 17.7162 47.6891 17.7587 47.9833C17.8563 47.8888 17.9289 47.8187 17.9964 47.7539C18.6569 48.5393 19.1773 49.3894 19.4275 50.4366C19.0898 50.4933 18.8846 50.693 18.7245 50.9926C18.6569 51.1194 18.4593 51.1599 18.3367 51.2625M18.772 53.5511C18.9171 53.6186 19.0698 53.6672 19.0472 53.8939C18.737 53.8858 18.6795 53.8156 18.772 53.5511ZM19.1223 51.1005C19.0322 50.7497 19.3775 50.8279 19.4851 50.6795C19.5001 50.7551 19.5126 50.8279 19.5276 50.9089C19.3975 50.971 19.2799 51.0276 19.1223 51.1005ZM19.2324 51.5458C19.2574 51.473 19.2624 51.3785 19.3074 51.3299C19.385 51.249 19.4901 51.195 19.5852 51.1302C19.7403 51.3461 19.6777 51.4163 19.425 51.5701C19.38 51.5998 19.2949 51.5566 19.2299 51.5485M19.39 56.0665C19.5601 56.0233 19.6902 55.9936 19.8203 55.9612C19.8279 55.9936 19.8329 56.0233 19.8404 56.0557C19.7228 56.1798 19.6027 56.2878 19.39 56.0665ZM19.5676 56.8842C19.5276 56.8734 19.4651 56.8329 19.4626 56.7979C19.4551 56.7466 19.4751 56.6629 19.5101 56.6386C19.6302 56.5604 19.7653 56.501 19.9179 56.42C19.9605 56.7061 19.7653 56.9301 19.5676 56.8842Z" fill="black"/>
<path d="M53.2912 18.2741C53.4588 18.0501 53.4263 17.6372 53.2086 17.567C53.0685 17.5211 52.8934 17.5913 52.7533 17.5454C52.6107 17.4995 52.4906 17.3754 52.3329 17.2674C52.3054 17.4402 52.2854 17.5697 52.2604 17.7343C52.1778 17.6777 52.1228 17.6561 52.0877 17.6156C51.9001 17.3997 51.6449 17.3835 51.4322 17.4671C51.1996 17.5616 51.0369 17.5157 50.8793 17.3565C50.6942 17.173 50.5115 16.984 50.3414 16.7843C50.2964 16.7303 50.2588 16.6062 50.2864 16.5549C50.4215 16.2823 50.3214 16.1852 50.0036 16.2014C50.0987 16.0556 50.1587 15.9612 50.2238 15.8694C50.2864 15.7776 50.3664 15.6967 50.4114 15.5995C50.514 15.3809 50.474 15.3107 50.2488 15.2595C50.1487 15.2352 50.0111 15.2271 49.9586 15.1542C49.841 14.9869 49.7059 14.995 49.5458 15.0139C49.4582 15.0247 49.3681 14.9977 49.2806 15.0031C49.1655 15.0112 49.0329 14.9977 48.9378 15.0543C48.6176 15.2433 48.3023 15.4457 48.0021 15.6697C47.847 15.783 47.7219 15.7992 47.5542 15.7183C47.279 15.586 47.0113 15.5752 46.7611 15.8181C46.606 15.9666 46.4133 16.0691 46.2432 16.1987C46.2032 16.2284 46.1707 16.2931 46.1606 16.3471C46.1231 16.5495 46.0656 16.5684 45.9004 16.4443C45.7553 16.3309 45.5727 16.2311 45.4001 16.2176C45.0047 16.1906 44.6069 16.2365 44.2116 16.2176C43.9464 16.2068 43.6787 16.0853 43.4185 16.1015C43.0332 16.1258 42.6804 16.0151 42.3202 15.9153C42.0775 15.8478 41.8348 15.7534 41.5896 15.7426C41.3519 15.7345 41.0942 15.5941 40.8665 15.81C40.6839 15.9855 40.5263 16.258 40.2135 16.0853C40.2035 16.0799 40.1835 16.0961 40.166 16.0988C39.9808 16.115 39.7957 16.1339 39.6106 16.142C39.3504 16.1528 39.0901 16.1366 38.8325 16.1582C38.3596 16.1987 37.8917 16.2661 37.4163 16.1312C36.7533 15.9423 36.0728 15.8775 35.3898 15.972C34.8719 16.0421 34.4315 15.972 34.1813 15.4025C34.1538 15.3377 34.0537 15.281 33.9837 15.273C33.6434 15.2271 33.3607 14.9518 32.9929 15.0004C32.8978 15.0139 32.7928 14.9113 32.6852 14.8762C32.6251 14.8573 32.5476 14.8492 32.49 14.8708C32.2999 14.9383 32.1147 15.0921 31.9296 15.0867C31.6168 15.0786 31.3691 15.1677 31.124 15.4214C31.3516 15.6508 31.5543 15.9207 31.812 16.0988C32.1372 16.3228 32.2223 16.4173 32.1923 16.8329C32.1748 17.0731 32.0522 17.2215 31.8395 17.2215C31.4917 17.2215 31.1415 17.1865 30.7937 17.1568C30.7512 17.1541 30.6836 17.1217 30.6711 17.0866C30.5735 16.814 30.3559 16.7897 30.1332 16.76C30.0731 16.7519 30.0181 16.7007 29.958 16.6764C29.7429 16.5954 29.5302 16.509 29.3125 16.4416C28.9448 16.3282 28.5545 16.3498 28.2092 16.0907C27.6813 15.6967 27.1183 15.389 26.4203 15.5293C26.1626 15.5806 25.8549 15.5455 25.6072 15.443C24.9592 15.1731 24.3537 14.8006 23.7607 14.4174C23.5231 14.2636 23.4805 14.0369 23.6582 13.8803C23.8583 13.7076 23.9284 13.4998 23.9109 13.2353C23.8958 12.987 24.0259 12.8008 24.2386 12.7873C24.6789 12.763 24.759 12.4364 24.8116 12.0802C24.8241 11.9965 24.749 11.8967 24.7215 11.8022C24.6915 11.6969 24.6739 11.5863 24.6489 11.4783C24.759 11.454 24.8666 11.4136 24.9767 11.4109C25.0317 11.4109 25.0868 11.4756 25.1418 11.5134C25.1593 11.4945 25.1793 11.4756 25.1969 11.4594C25.1218 11.3326 25.0617 11.1895 24.9692 11.0816C24.8241 10.917 24.754 10.7469 24.7815 10.5148C24.8065 10.307 24.804 10.0938 24.7865 9.88598C24.7615 9.57561 24.5939 9.48385 24.3337 9.6188C24.2861 9.64308 24.2361 9.66198 24.151 9.69706C24.5488 9.16268 24.7115 8.57433 24.7515 7.93469C24.784 7.94549 24.8191 7.95358 24.8516 7.96168C24.8391 8.09393 24.8241 8.22887 24.8091 8.36112C24.7965 8.48256 24.784 8.60402 24.769 8.72547C24.804 8.73356 24.8416 8.73896 24.8766 8.74706C24.9166 8.6418 24.9617 8.53654 24.9992 8.42859C25.0893 8.1668 25.1418 7.88071 25.2769 7.65131C25.4921 7.28426 25.4796 6.49079 25.1969 6.17502C24.9992 5.95371 24.8015 5.7324 24.5939 5.52459C24.4488 5.37885 24.3687 5.22232 24.3687 4.99831C24.3687 4.84987 24.3312 4.67444 24.2511 4.55839C24.0209 4.22103 23.7607 3.90526 23.5105 3.58409C23.2704 3.27912 23.0352 2.98224 22.6699 2.80952C22.3021 2.63409 21.9743 2.38039 21.7717 1.95667C21.6866 1.78124 21.4614 1.6463 21.2713 1.57883C20.9335 1.45738 20.5407 1.57073 20.2205 1.33053C20.2105 1.32243 20.188 1.33053 20.1729 1.32783C19.7376 1.30084 19.3148 1.23337 18.952 0.93919C18.8844 0.885213 18.7869 0.874417 18.6993 0.852826C18.2389 0.736774 17.7761 0.623421 17.3157 0.50467C17.2782 0.493875 17.2432 0.464187 17.2106 0.437198C16.8354 0.129526 16.3925 0.0620538 15.9397 0.0485594C15.4443 0.0350649 14.9464 0.0620538 14.4535 0.0161728C14.0182 -0.0243105 13.7029 0.134924 13.4352 0.485778C13.3552 0.591035 13.21 0.680098 13.0874 0.696291C12.7872 0.739473 12.577 0.855525 12.452 1.17669C12.3944 1.32513 12.2393 1.43578 12.1167 1.54914C11.8265 1.82172 11.5688 2.1159 11.4287 2.51804C11.2785 2.94986 10.9583 3.25483 10.5955 3.44105C10.3328 3.576 10.1977 3.73793 10.1427 4.02401C10.1101 4.19404 10.0726 4.36677 10.0201 4.5314C9.96752 4.69603 9.91998 4.96052 9.8199 4.99021C9.37206 5.13055 9.34203 5.52999 9.23445 5.89974C9.1669 6.13184 8.95924 6.39903 9.01428 6.57446C9.14688 6.99008 8.96674 7.15741 8.74407 7.4435C8.36878 7.9266 8.27621 8.53924 8.43133 9.17888C8.47636 9.3597 8.46635 9.58641 8.4013 9.75644C8.29122 10.0452 8.10857 10.2989 7.97597 10.5796C7.93094 10.6768 7.94345 10.8063 7.94094 10.9224C7.93844 11.0627 7.95846 11.2084 7.94595 11.3488C7.93594 11.4783 7.8809 11.6025 7.86839 11.732C7.84337 12.0019 7.90091 12.0559 8.15611 12.0802C8.24868 12.0883 8.34126 12.1396 8.42632 12.1854C8.54892 12.2529 8.67151 12.3258 8.7866 12.4067C9.08934 12.6227 9.39708 12.8359 9.6848 13.0734C9.75986 13.1354 9.82991 13.3001 9.80239 13.381C9.76987 13.4809 9.63976 13.5942 9.54219 13.6077C8.72655 13.7157 8.16612 14.2123 7.70076 14.9059C6.94017 16.0448 6.38223 17.2782 6.03947 18.6304C5.92438 19.0811 5.76425 19.5372 5.54658 19.9393C4.83103 21.2537 4.07544 22.5437 3.33987 23.8473C2.98209 24.4815 2.93956 25.159 3.09218 25.8769C3.14972 26.1494 3.12971 26.4463 3.13221 26.7297C3.13221 27.0509 3.05215 27.3909 3.1222 27.6905C3.3799 28.7997 4.70593 29.4124 5.63916 28.8699C6.05448 28.6297 6.44478 28.3382 6.84759 28.0711C6.92766 28.0171 7.01022 27.9685 7.14032 27.8902C7.16034 28.0441 7.19286 28.152 7.18536 28.2573C7.14282 28.878 7.10029 29.4988 7.03774 30.1168C6.90764 31.4258 6.84259 32.7374 6.95518 34.0518C7.00772 34.6779 6.84009 35.2528 6.48231 35.7494C6.34971 35.9329 6.3347 36.1272 6.35221 36.3404C6.35721 36.416 6.35221 36.4997 6.32469 36.5671C6.32469 36.5671 8.85666 41.5628 19.7226 38.397C19.66 38.3268 19.6751 38.4267 19.66 38.3268C19.5575 37.6251 19.66 36.6373 19.5875 35.9302C19.4749 34.8291 19.4774 33.7414 19.7977 32.6538C20.1029 31.612 20.298 30.5324 20.5057 29.461C20.6908 28.4975 20.896 27.5448 21.2763 26.646C21.4815 26.1602 21.7942 25.7257 21.9693 25.2318C22.1545 24.7109 22.3146 24.1793 22.4722 23.6476C22.5823 23.2778 22.6899 22.9081 22.8025 22.5383C22.8901 22.2469 22.9551 21.9446 23.0652 21.6639C23.2929 21.0836 23.6306 20.9217 24.2036 21.0432C24.8866 21.1889 25.5771 21.313 26.2677 21.1457C27.5787 20.8273 28.8922 20.5088 30.1882 20.1282C30.7637 19.9582 31.3191 19.8098 31.9271 19.799C33.0254 19.7801 34.1213 19.6047 35.2221 19.7342C35.3347 19.7477 35.4498 19.7369 35.5649 19.7342C37.3738 19.7018 39.1477 19.3348 40.9216 18.9974C41.7872 18.8328 42.6329 18.5467 43.4986 18.3848C44.2817 18.239 45.0523 18.2795 45.6978 18.9191C46.2707 19.4859 46.9963 19.6559 47.7419 19.6397C48.5975 19.6182 49.4282 19.7396 50.2038 20.1013C50.9419 20.4413 51.6899 20.4494 52.458 20.3792C52.8458 20.3442 52.9434 20.1687 52.8008 19.7774C52.7733 19.7045 52.7433 19.6316 52.7007 19.5669C52.5931 19.3995 52.5956 19.2484 52.7182 19.0892C52.9184 18.8247 53.1035 18.5521 53.3012 18.2876M24.5213 11.8481C24.5614 11.8562 24.6264 11.9614 24.6139 11.9965C24.5939 12.0532 24.5163 12.1234 24.4688 12.118C24.4187 12.1126 24.3762 12.0262 24.3012 11.9398C24.4037 11.894 24.4688 11.84 24.5213 11.8481ZM10.3278 13.9748C10.2577 13.8506 10.1952 13.7778 10.1827 13.6941C10.1777 13.6644 10.3128 13.5646 10.3553 13.5808C10.4304 13.6104 10.4829 13.7049 10.5455 13.7697C10.4879 13.8264 10.4279 13.8803 10.3278 13.9748ZM10.4504 7.37872C10.4279 7.36253 10.4079 7.34634 10.3853 7.32744C10.4554 7.23028 10.523 7.13312 10.6255 6.98738C10.7156 7.28156 10.588 7.33284 10.4504 7.37872ZM13.7079 12.288C13.5703 12.2367 13.4327 12.1854 13.2976 12.1342C13.2926 12.1342 13.2951 12.1018 13.2851 11.9884C13.4652 12.0532 13.6003 12.0991 13.7329 12.1557C13.7405 12.1584 13.7179 12.2421 13.7079 12.288ZM14.0482 13.5673C13.9506 13.4836 13.8605 13.381 13.7955 13.2677C13.783 13.2434 13.8881 13.1435 13.9806 13.0275C14.0857 13.1921 14.1658 13.3028 14.2208 13.4269C14.2283 13.4431 14.0632 13.5808 14.0482 13.5673ZM16.8128 32.2813C16.7878 32.0006 16.8529 31.9359 17.1131 32.0006C16.998 32.1059 16.9079 32.1922 16.8128 32.2813ZM20.9536 3.24943C21.1212 3.37088 21.2888 3.48963 21.509 3.64887C21.2088 3.67856 21.1287 3.36818 20.9135 3.3277C20.9285 3.30341 20.941 3.27642 20.9536 3.24943ZM21.2213 4.5287C21.1912 4.52061 21.1587 4.51521 21.1287 4.50711C21.1287 4.40995 21.1062 4.302 21.1412 4.22373C21.1662 4.16435 21.2688 4.14546 21.3389 4.11038C21.3564 4.13197 21.3739 4.15356 21.3914 4.17245C21.3339 4.2912 21.2788 4.40995 21.2213 4.5287ZM21.8718 5.10896C21.8417 5.11706 21.8092 5.12516 21.7792 5.13595C21.7342 5.04419 21.6891 4.95243 21.6416 4.86067C21.5966 4.7743 21.549 4.68794 21.4815 4.56379C21.539 4.55569 21.6241 4.51251 21.6841 4.5395C21.8793 4.62316 22.0769 4.72032 22.162 5.03069C22.0169 4.95243 21.9243 4.90115 21.8167 4.84447C21.8367 4.94703 21.8543 5.028 21.8693 5.11166M22.3271 14.4147C22.2996 14.3688 22.2371 14.3041 22.2471 14.2825C22.2871 14.1988 22.3521 14.1313 22.4372 14.018C22.4872 14.1205 22.5398 14.1961 22.5273 14.215C22.4722 14.2906 22.3972 14.3499 22.3271 14.4147ZM22.2496 6.57716C22.2145 6.62034 22.1595 6.64463 22.1145 6.67701C22.0994 6.62304 22.0744 6.57176 22.0719 6.51778C22.0719 6.47999 22.0869 6.41792 22.1145 6.40173C22.3672 6.24519 22.2646 6.04278 22.222 5.81337C22.182 5.60016 22.227 5.37075 22.2371 5.10896C22.5123 5.503 22.8801 5.81607 22.7424 6.40173C22.6799 6.32616 22.6374 6.27218 22.5598 6.17502C22.4472 6.32346 22.3521 6.45301 22.2496 6.57985M23.0277 14.2987C22.8951 14.3202 22.7575 14.296 22.6023 14.2879C22.6449 13.9019 22.8125 13.7751 23.0752 13.9208C23.1503 13.964 23.1953 14.0666 23.2528 14.1421C23.1778 14.1961 23.1077 14.2852 23.0252 14.2987M50.1212 17.9233C49.9936 17.9961 49.8635 18.0852 49.7234 18.1095C49.6058 18.1311 49.4407 18.1095 49.3581 18.0339C49.153 17.8423 48.9753 17.6129 48.8052 17.3808C48.7477 17.2998 48.7426 17.1757 48.7126 17.0704C48.8427 17.0542 48.9978 16.9813 49.0954 17.0353C49.3531 17.1784 49.6058 17.3565 49.6559 17.6696C49.8335 17.6588 49.9736 17.6399 50.1137 17.6507C50.1562 17.6534 50.2113 17.7397 50.2238 17.7964C50.2313 17.8315 50.1688 17.8963 50.1262 17.9206" fill="black"/>
<path d="M26.6857 15.4915C26.6857 15.4915 32.2325 14.5226 33.9414 14.9706C35.6502 15.4213 42.7257 15.872 43.1911 15.5562C43.1911 15.5562 45.7831 15.5508 46.1584 16.3416C46.5337 17.1297 46.1584 18.0311 46.1584 18.0311L36.2757 18.66H25.2246L22.0972 17.9394L26.6832 15.4915H26.6857Z" fill="black"/>
<path d="M45.1426 15.7695C45.1426 15.7695 50.1615 13.7589 50.8095 14.4552C50.8095 14.4552 51.5175 15.3107 50.9771 15.8937L47.647 17.1864L46.7563 17.8288L45.4904 17.2566L45.1451 15.7695H45.1426Z" fill="black"/>
<path d="M50.7496 14.4094C50.7496 14.4094 53.4392 17.1218 53.3867 17.8289L51.7404 18.5711L50.3968 19.0272L48.3177 18.5711L46.3262 17.3566L46.5513 16.5631L47.457 16.0692L50.7496 14.4094Z" fill="black"/>
<path d="M17.6786 57.1758L21.6316 57.1596L20.7234 54.1072L17.2607 50.6418L17.6786 57.1758Z" fill="black"/>
<path d="M3.00001 57.1596L0.290403 57.192C0.290403 57.192 -0.487702 55.5592 0.50557 53.9102C0.50557 53.9102 1.0635 52.6687 1.13606 50.6418C1.13606 50.6418 1.53887 45.039 4.95903 42.1458L9.12977 43.4007L13.6032 47.2304L11.2564 54.4661L8.81703 57.1596H3.00001Z" fill="black"/>
</g>
<defs>
<clipPath id="clip0_35_352">
<rect width="82.2989" height="63" fill="white"/>
</clipPath>
</defs>
</svg>
